# xmcd
#
# Track frame offsets:
#	150
#	17867
#	32407
#	49142
#	63150
#	76782
#	90617
#	109077
#	127105
#	139730
#	155127
#	169377
#	183907
#	200220
#	214762
#
# Disc length: 3109 seconds
#
# Revision: 0
# Processed by: cddbd v1.5.2PL0 Copyright (c) Steve Scherf et al.
# Submitted via: EasyCDDAExtractor 15.3.0.1
#
DISCID=d30c230f
DTITLE=Yuri - 30 Exitos Insuperables - CD 1
DYEAR=2003
DGENRE=Latin
TTITLE0=Maldita Primavera
TTITLE1=Tonto
TTITLE2=Yo Te Pido Amor
TTITLE3=Cuidate Bien
TTITLE4=Entre Dos Aguas
TTITLE5=Que Te Pasa
TTITLE6=Esperanzas
TTITLE7=Este Amor No Se Toca
TTITLE8=Cartas
TTITLE9=Vivir Sin Ti
TTITLE10=Dame Un Beso
TTITLE11=Hoy Me He Vuelto A Enamorar
TTITLE12=Un Corazon Herido
TTITLE13=Comediantes
TTITLE14=Karma Kamaleon
EXTD=
EXTT0=
EXTT1=
EXTT2=
EXTT3=
EXTT4=
EXTT5=
EXTT6=
EXTT7=
EXTT8=
EXTT9=
EXTT10=
EXTT11=
EXTT12=
EXTT13=
EXTT14=
PLAYORDER=
